<svg id="Layer_1" data-name="Layer 1" xmlns="http://www.w3.org/2000/svg" viewBox="0 0 79.37 79.37"><defs><style>.cls-1{fill:#3cb4e6;}.cls-2{fill:#fff;}</style></defs><title>Subbrand</title><path class="cls-1" d="M68.93,12.86c-.79,4.08-2.79,8-5.05,10.06,6.58,3.33,11.32,8.47,5.58,15.27-6.78,8-13.65.73-18.52-4.63,1.07,2.76,2,6.95,1.5,9.25-1.29-1.56-2.77-6.05-3.25-8.88C47.64,40.38,46.7,47.52,38.74,47.7c-11.5.25-10.91-10.44-6.4-16.6-5.76.47-11.89-9-12.49-14.65a2.76,2.76,0,0,1,.78-2.36c5.17-4,20.29,2.6,24,6C44.31,19,44.36,17,45.3,16c1.26.31,2.3,1.86,2.72,3.06,1-2,5.77-9.77,10.6-14.29a39.73,39.73,0,1,0,10.31,8.06Z"/><path class="cls-2" d="M63.66,23.07c4.15-3.7,7.43-14,3.77-19.41C62.12-4.18,49.69,15.94,48,19.28c-.42-1.2-1.45-2.73-2.7-3-.94.94-1,2.91-.7,4-3.64-3.38-18.63-9.9-23.74-5.95A2.72,2.72,0,0,0,20,16.66c.6,5.6,6.67,15,12.37,14.51-4.47,6.11-5,16.71,6.35,16.45,7.88-.17,8.82-7.25,10.35-13.63.47,2.8,1.94,7.25,3.22,8.79.53-2.28-.43-6.43-1.48-9.17,4.82,5.32,11.63,12.55,18.35,4.59C74.88,31.47,70.18,26.37,63.66,23.07Z"/><path class="cls-2" d="M14.7,61.64V62c0,1.14.32,1.87,1.61,1.87a1.39,1.39,0,0,0,1.46-1.49c0-1.11-.56-1.52-2.17-2.08-2.18-.74-3.18-1.65-3.18-3.67,0-2.36,1.44-3.57,3.76-3.57s3.75.94,3.75,3.27v.34H17.59c0-1.14-.39-1.81-1.33-1.81a1.25,1.25,0,0,0-1.39,1.41c0,.75.22,1.21,1.26,1.65l1.88.82c1.84.8,2.31,1.73,2.31,3.21,0,2.57-1.56,3.73-4.21,3.73s-3.86-1.3-3.86-3.54v-.49Z"/><path class="cls-2" d="M28.65,53.29v2H26V65.43H23.55V55.3H20.9v-2Z"/><path class="cls-2" d="M29.76,53.29H33.4l1.73,8.57h0l1.75-8.57h3.62V65.43H38.29V55.74h0L36.1,65.43H34.2L32,55.74h0v9.69H29.76Z"/><path class="cls-2" d="M44.5,58.64h.75c1.27,0,1.83-.91,1.83-2.12s-.41-2-1.56-2c-1.58,0-1.74,1.47-1.74,2.35H42.29c0-2.06,1-3.47,3.19-3.47a2.85,2.85,0,0,1,3.1,3.13,2.47,2.47,0,0,1-1.87,2.58v0a2.57,2.57,0,0,1,2.23,2.8c0,2.19-1.11,3.73-3.42,3.73a3.21,3.21,0,0,1-3.42-3.35v-.16h1.5c0,1.11.54,2.38,1.92,2.38.88,0,1.92-.44,1.92-2.48a2,2,0,0,0-2.18-2.29H44.5Z"/><path class="cls-2" d="M57,65.43H50.31a6.4,6.4,0,0,1,2.6-4.93l1-.84a3.54,3.54,0,0,0,1.6-2.89c0-1-.46-2.15-1.75-2.15-1.86,0-1.91,1.92-1.91,2.6H50.35c0-2.28.95-3.83,3.41-3.83A3,3,0,0,1,57,56.6c0,1.84-.76,2.81-2.1,4L53.19,62a3.74,3.74,0,0,0-1.31,2.06H57Z"/></svg>